inDegrees=no
num_controls=7
num_derivatives=13
num_iterations=160
num_multipliers=7
num_parameters=0
num_slacks=7
num_states=26
objective=5.732509
objective_accelerations=0.694728
objective_balance=0.010956
objective_effort=0.492403
objective_height=4.510639
objective_ligament=0.023782
solver_duration=1340.205492
status=Solve_Succeeded
success=true
DataType=double
version=3
OpenSimVersion=4.4-2022-07-23-0e9fedc
endheader
time	/jointset/ground_pelvis/pelvis_tilt/value	/jointset/ground_pelvis/pelvis_tx/value	/jointset/ground_pelvis/pelvis_ty/value	/jointset/hip_r/hip_flexion_r/value	/jointset/hip_r/hip_adduction_r/value	/jointset/hip_r/hip_rotation_r/value	/jointset/back/lumbar_extension/value	/jointset/patellofemoral_r/patellar_flexion_r/value	/jointset/knee_r/knee_flexion_r/value	/jointset/knee_r/knee_adduction_r/value	/jointset/knee_r/knee_rotation_r/value	/jointset/ankle_r/ankle_angle_r/value	/jointset/subtalar_r/subtalar_angle_r/value	/jointset/ground_pelvis/pelvis_tilt/speed	/jointset/ground_pelvis/pelvis_tx/speed	/jointset/ground_pelvis/pelvis_ty/speed	/jointset/hip_r/hip_flexion_r/speed	/jointset/hip_r/hip_adduction_r/speed	/jointset/hip_r/hip_rotation_r/speed	/jointset/back/lumbar_extension/speed	/jointset/patellofemoral_r/patellar_flexion_r/speed	/jointset/knee_r/knee_flexion_r/speed	/jointset/knee_r/knee_adduction_r/speed	/jointset/knee_r/knee_rotation_r/speed	/jointset/ankle_r/ankle_angle_r/speed	/jointset/subtalar_r/subtalar_angle_r/speed	/forceset/tau_hip_flexion_r	/forceset/tau_hip_adduction_r	/forceset/tau_hip_rotation_r	/forceset/tau_knee_flexion_r	/forceset/tau_ankle_angle_r	/forceset/tau_subtalar_angle_r	/forceset/tau_lumbar_extension	lambda_cid13_p0	lambda_cid14_p0	lambda_cid14_p1	lambda_cid14_p2	lambda_cid14_p3	lambda_cid14_p4	lambda_cid14_p5	/jointset/ground_pelvis/pelvis_tilt/accel	/jointset/ground_pelvis/pelvis_tx/accel	/jointset/ground_pelvis/pelvis_ty/accel	/jointset/hip_r/hip_flexion_r/accel	/jointset/hip_r/hip_adduction_r/accel	/jointset/hip_r/hip_rotation_r/accel	/jointset/back/lumbar_extension/accel	/jointset/patellofemoral_r/patellar_flexion_r/accel	/jointset/knee_r/knee_flexion_r/accel	/jointset/knee_r/knee_adduction_r/accel	/jointset/knee_r/knee_rotation_r/accel	/jointset/ankle_r/ankle_angle_r/accel	/jointset/subtalar_r/subtalar_angle_r/accel	gamma_cid13_p0	gamma_cid14_p0	gamma_cid14_p1	gamma_cid14_p2	gamma_cid14_p3	gamma_cid14_p4	gamma_cid14_p5
0.5	-0.1560861177365483	0.01367295233210615	0.7912119080316178	0.9599243770473445	-0.2221915922962102	-0.120815660355127	-0.6555644551043821	1.006295611926783	1.006295611926856	-0.06441640062200563	0.1745310379554026	0.2975921003736588	0.1408544814418348	-0.4066829932338228	-0.2176539405090803	-0.5657175983875977	2.045580328717934	-0.03481470593833154	0.2211059268441095	-0.7332359119146038	2.067806170674966	2.067806170675002	-0.4207578179500552	-9.307078329749199e-05	0.5321443077657236	0.1579790086030664	-0.2085974145930853	0.001737141990790446	0.01741839980809717	-0.3015361091754902	0.01605508393287133	0.004884474583580285	0.2482497600455751	-6.04978882153458	-36.91435952125384	-3.50063860991534	0.01886876926659771	-6.619152645255284	-639.8614324693704	66.91954153536643	0.464984458056996	0.6995202630093533	-0.4638583189117155	-1.421044254577819	-0.1791028427676736	-0.5252396304760112	1.976941718120852	-1.442725413430679	-1.442725413430729	0.481203316078012	-0.0276285337471694	-0.6467827250710756	-0.3783258935666864	-1.372711838623531e-07	-5.962422770386251e-08	1.277668886474873e-06	-7.554191520906188e-07	-1.02138854943466e-07	-2.273579752755799e-07	7.95745228903155e-07
0.51	-0.1601287610857622	0.0115315917894414	0.7855328854300943	0.9803058861688764	-0.222549311113375	-0.1186311142158035	-0.6627974018015884	1.026898471982592	1.026898471982632	-0.06859835686137493	0.1745302065359846	0.3028800696777817	0.1424137965734701	-0.4017755649773569	-0.210599163288432	-0.5699564848679182	2.030440580947976	-0.03672262000262693	0.2158534022763954	-0.7132658382049565	2.052490027800593	2.052490027800653	-0.4155526767473122	-8.531293915271687e-05	0.5253687569417239	0.1538431028384504	-0.2155070030070053	0.002576840743213936	0.01772356570733172	-0.3071812360339171	0.0155456099912137	0.005105081557198896	0.254702129430892	-5.185883256585215	-37.44797227237974	-3.66748146453101	0.238758524050958	-6.634747799250355	-645.5741241293154	67.2578139127581	0.514137226806874	0.7112803012871648	-0.3843794756504998	-1.602580646634264	-0.1956604909045822	-0.5179333573155968	2.020178595633734	-1.617406487962062	-1.617406487958155	0.5524763417202945	0.01310839727810867	-0.7051084588653045	-0.4371975729649551	-1.026932947716584e-07	1.677589086809888e-08	1.536171774001356e-06	-1.7414273262938e-07	-1.711156362463823e-07	-1.872202168285552e-07	1.034471397647631e-06
0.52	-0.1641202271089447	0.00946134378892222	0.7798153788311557	1.000527569691017	-0.2229259140317089	-0.1164976282196551	-0.6698280200820496	1.047339901056975	1.047339901056944	-0.07272580032483808	0.1745290787839499	0.3080978500341056	0.1439305577164482	-0.3964475280262621	-0.2034314320799648	-0.5734143978705689	2.013615208840846	-0.03859152617266243	0.2108938982128225	-0.6927702285654244	2.035519974385362	2.035519974385449	-0.4098552627706532	-0.0001523369436932303	0.5181065182056869	0.1494682108715957	-0.222416591420936	0.003416539495565737	0.01802873160626656	-0.3128263628923704	0.01503613604953986	0.005325688530709661	0.2611544988162051	-4.391379504843127	-37.97742301320878	-3.8256934673328	0.448246853187201	-6.690083852620781	-651.2432387641821	67.642571959902	0.5491061969827221	0.7221110605732516	-0.3076636233777851	-1.758169122012264	-0.1713012639160373	-0.4666355296483955	2.082048904097808	-1.773507521601872	-1.773507521601938	0.5796578708613139	-0.04258490348328995	-0.7441203074784576	-0.4261231340148733	-6.631530217163977e-08	9.864729947508947e-08	1.823854636133823e-06	4.333115979607127e-07	-2.454887982837211e-07	-1.490709108802702e-07	1.326191701043758e-06
0.53	-0.1680564510332757	0.007463220551445269	0.7740671992533789	1.020572919535477	-0.2233207246031299	-0.114414101965683	-0.6766512252269983	1.067603365769064	1.067603365768997	-0.07679585801997456	0.1745275867082094	0.3132406959262739	0.1454028740874398	-0.3907333091036829	-0.1961847169494177	-0.576089323853281	1.995192148281514	-0.04036165383910407	0.2058400407625586	-0.6718084937605057	2.016909879306651	2.016909879306692	-0.4040977520696822	-0.0001454176482222076	0.5103858726868253	0.1449587068125149	-0.2291324010168692	0.003612667766402285	0.01827423298265682	-0.3185122469669386	0.0141696169875424	0.005880938528184664	0.2673631476288063	-3.666351815035067	-38.59700907115072	-3.80478082143549	0.5725544426174457	-6.576670009994834	-656.8991305885812	68.43920366539645	0.5921913273906413	0.7271695986686966	-0.2276038174862944	-1.923745367876496	-0.1783274705146928	-0.5205395272780224	2.11258176824483	-1.944214368719054	-1.944214368725662	0.5828311157960526	0.02264075270919301	-0.7976097877835671	-0.4684190149155208	-4.034234599330033e-08	1.469769099765042e-07	1.928957635844119e-06	7.825417390086321e-07	-2.834734992157463e-07	-1.217175798517293e-07	1.472348211502347e-06
0.54	-0.171933610450888	0.005537808037148669	0.7682962310694211	1.040426164605344	-0.2237329282417116	-0.1123802700211567	-0.6832629438239878	1.087672838756832	1.087672838756721	-0.08080653391887331	0.174526225906632	0.3183040207405171	0.1468290844232283	-0.3846346266812828	-0.1888892874438948	-0.5779721191067487	1.975194253922876	-0.04207013960576335	0.2009550363297931	-0.6504729189733476	1.996721629519401	1.996721629519399	-0.397978903525462	-0.0001260820868870491	0.5022023026202176	0.140247003831003	-0.2358482106128104	0.003808796037132193	0.01851973435895113	-0.3241981310415127	0.01330309792551616	0.006436188525481291	0.2735717964414058	-3.00996670324379	-39.213290160067	-3.774514744598194	0.6853494964470523	-6.498353971000372	-662.5349115537304	69.26234073962627	0.625998896946882	0.7318539355684747	-0.1492374775288257	-2.073135881873558	-0.1589728839593796	-0.4328649261484798	2.156816900545671	-2.089138463309541	-2.08913846330947	0.6519254395110908	-0.04010165031093483	-0.8367052170276212	-0.4665629185007841	-2.588134500490392e-08	1.581964459781325e-07	1.832057383512863e-06	8.460770320524416e-07	-2.811986261589133e-07	-1.06308731713118e-07	1.457455419136423e-06
